<svg version="1.2" xmlns="http://www.w3.org/2000/svg" viewBox="0 0 37 21" width="37" height="21"><style>.a{fill:#f2f2f2}</style><path fill-rule="evenodd" class="a" d="m2.7 20.4h-2.2c-0.3 0-0.5-0.2-0.5-0.5v-19.1c0-0.2 0.2-0.4 0.5-0.4h5.1c0.3 0 0.4 0.2 0.4 0.4v19.1c0 0.3-0.1 0.5-0.4 0.5zm-2-0.7h4.7v-12.2-6.5h-4.7z"/><path fill-rule="evenodd" class="a" d="m25.7 20.4h-12.1c-0.2 0-0.4-0.3-0.2-0.5l12.1-19.4c0.1-0.2 0.5-0.1 0.5 0.2v19.4c0 0.1-0.1 0.3-0.3 0.3zm-11.4-0.7h11v-17.6z"/><path fill-rule="evenodd" class="a" d="m36.5 11.4l-8.2-2.4c-0.2-0.1-0.3-0.4-0.1-0.6l6.3-6.3c0.2-0.1 0.5 0 0.5 0.2l1.9 8.7c0.1 0.3-0.1 0.5-0.4 0.4zm-7.5-2.9l7.2 2.1-1.7-7.6z"/><path fill-rule="evenodd" class="a" d="m29.9 20.4h-27c-0.2 0-0.3-0.2-0.3-0.4 0-3.6 1.4-7 3.9-9.6 2.6-2.7 6.1-4.2 9.9-4.2 3.8 0 7.5 1.6 10.2 4.4 2.3 2.6 3.6 5.9 3.6 9.4 0 0.2-0.1 0.4-0.3 0.4zm-26.6-0.7h26.2c-0.1-3.2-1.3-6.3-3.5-8.6-2.4-2.7-6-4.2-9.6-4.2-3.6 0-6.9 1.4-9.4 4-2.3 2.4-3.6 5.5-3.7 8.8z"/><path class="a" d="m28.6 8.7l7.6 2.2v-0.5l-1.5-7.8z"/></svg>